<svg viewBox="0 0 44 44">
<path fill-rule="evenodd" clip-rule="evenodd" d="M21.8938 1.4839C33.1233 1.4839 42.2265 10.5873 42.2265 21.8169C42.2265 33.0461 33.1233 42.1494 21.8938 42.1494C10.6643 42.1494 1.56112 33.0461 1.56112 21.8169C1.56112 10.5873 10.6643 1.4839 21.8938 1.4839Z"/>
<path fill-rule="evenodd" clip-rule="evenodd" d="M15 11H30C31.65 11 33 12.35 33 14V29C33 30.65 31.65 32 30 32H15C13.35 32 12 30.65 12 29V14C12 12.35 13.35 11 15 11ZM26 21.5C26 19.57 24.43 18 22.5 18C20.57 18 19 19.57 19 21.5C19 23.43 20.57 25 22.5 25C24.43 25 26 23.43 26 21.5ZM15 29V20H16.181C16.0626 20.4913 16.0019 20.9947 16 21.5C16 25.0899 18.9101 28 22.5 28C26.0899 28 29 25.0899 29 21.5C28.9986 20.9946 28.9379 20.4912 28.819 20H30V29H15ZM26 18H30V14H26V18Z" fill="currentColor"/>
</svg>
