<svg xmlns="http://www.w3.org/2000/svg" xmlns:xlink="http://www.w3.org/1999/xlink"><symbol id="checkbox-off" viewBox="0 0 23 23">
<path fill-rule="evenodd" clip-rule="evenodd" d="M3 0H20C21.65 0 23 1.35 23 3V20C23 21.65 21.65 23 20 23H3C1.35 23 0 21.65 0 20V3C0 1.35 1.35 0 3 0ZM21 3C21 2.458 20.542 2 20 2H3C2.458 2 2 2.458 2 3V20C2 20.542 2.458 21 3 21H20C20.542 21 21 20.542 21 20V3Z"/>
</symbol><symbol id="checkbox-on" viewBox="0 0 27 23">
<path d="M7.28499 7.48601L4.45599 10.315L12.239 18.098L26.171 4.16601L23.343 1.33701L12.239 12.439L7.28499 7.48601Z"/>
<path d="M21 20C21 20.542 20.542 21 20 21H3C2.458 21 2 20.542 2 20V3C2 2.458 2.458 2 3 2H19.908L21.493 0.415C21.041 0.146542 20.5257 0.00329969 20 0H3C1.35 0 0 1.35 0 3V20C0 21.65 1.35 23 3 23H20C21.65 23 23 21.65 23 20V10.171L21 12.171V20Z"/>
</symbol><symbol id="icon-bookmark" viewBox="0 0 24 24">
<path d="M5.58579 3.58579C5.21071 3.96086 5 4.46957 5 5V21L12 17.5L19 21V5C19 4.46957 18.7893 3.96086 18.4142 3.58579C18.0391 3.21071 17.5304 3 17 3H7C6.46957 3 5.96086 3.21071 5.58579 3.58579Z" stroke-width="2" stroke-linecap="round" stroke-linejoin="round"/>
</symbol><symbol id="icon-cart" viewBox="0 0 15 15">
<path d="M4.5 15C5.32843 15 6 14.3284 6 13.5C6 12.6716 5.32843 12 4.5 12C3.67157 12 3 12.6716 3 13.5C3 14.3284 3.67157 15 4.5 15Z" fill="currentColor"/>
<path d="M12.5 15C13.3284 15 14 14.3284 14 13.5C14 12.6716 13.3284 12 12.5 12C11.6716 12 11 12.6716 11 13.5C11 14.3284 11.6716 15 12.5 15Z" fill="currentColor"/>
<path d="M15 2H4.07L3.648 0H0V2H2.031L4.016 11H15V9H9.441L15 6.951V2Z" fill="currentColor"/>
</symbol><symbol id="icon-close" viewBox="0 0 21 21">
<path d="M13.273 10.5L20.695 3.07799C21.084 2.68899 21.084 2.05299 20.695 1.66399L19.336 0.304995C18.947 -0.0840054 18.311 -0.0840054 17.922 0.304995L10.5 7.72699L3.07799 0.304995C2.68899 -0.0840054 2.05299 -0.0840054 1.66399 0.304995L0.304995 1.66399C-0.0840054 2.05299 -0.0840054 2.68899 0.304995 3.07799L7.72699 10.5L0.305995 17.922C-0.0830054 18.311 -0.0830054 18.947 0.305995 19.336L1.66499 20.695C2.05399 21.084 2.68999 21.084 3.07899 20.695L10.501 13.273L17.923 20.695C18.312 21.084 18.948 21.084 19.337 20.695L20.696 19.336C21.085 18.947 21.085 18.311 20.696 17.922L13.273 10.5Z"/>
</symbol><symbol id="icon-down-dir" viewBox="0 0 12 10">
  <path d="M5.66235 0L11.1624 10L0.162354 10" fill="currentColor"/>
</symbol><symbol id="icon-fb" viewBox="0 0 44 44">
<path fill-rule="evenodd" clip-rule="evenodd" d="M21.8938 1.4839C33.1232 1.4839 42.2265 10.5873 42.2265 21.8169C42.2265 33.0461 33.1232 42.1494 21.8938 42.1494C10.6643 42.1494 1.56108 33.0461 1.56108 21.8169C1.56108 10.5873 10.6643 1.4839 21.8938 1.4839Z"/>
<path d="M28 15V11H24C21.7909 11 20 12.7909 20 15V19H16V23H20V33H24V23H28V19H24V15H28Z" fill="currentColor"/>
</symbol><symbol id="icon-ig" viewBox="0 0 44 44">
<path fill-rule="evenodd" clip-rule="evenodd" d="M21.8938 1.4839C33.1233 1.4839 42.2265 10.5873 42.2265 21.8169C42.2265 33.0461 33.1233 42.1494 21.8938 42.1494C10.6643 42.1494 1.56112 33.0461 1.56112 21.8169C1.56112 10.5873 10.6643 1.4839 21.8938 1.4839Z"/>
<path fill-rule="evenodd" clip-rule="evenodd" d="M15 11H30C31.65 11 33 12.35 33 14V29C33 30.65 31.65 32 30 32H15C13.35 32 12 30.65 12 29V14C12 12.35 13.35 11 15 11ZM26 21.5C26 19.57 24.43 18 22.5 18C20.57 18 19 19.57 19 21.5C19 23.43 20.57 25 22.5 25C24.43 25 26 23.43 26 21.5ZM15 29V20H16.181C16.0626 20.4913 16.0019 20.9947 16 21.5C16 25.0899 18.9101 28 22.5 28C26.0899 28 29 25.0899 29 21.5C28.9986 20.9946 28.9379 20.4912 28.819 20H30V29H15ZM26 18H30V14H26V18Z" fill="currentColor"/>
</symbol><symbol id="icon-login" viewBox="0 0 24 24">
<path d="M11 16L7 12M7 12L11 8M7 12H21M16 16V17C16 17.7956 15.6839 18.5587 15.1213 19.1213C14.5587 19.6839 13.7956 20 13 20H6C5.20435 20 4.44129 19.6839 3.87868 19.1213C3.31607 18.5587 3 17.7956 3 17V7C3 6.20435 3.31607 5.44129 3.87868 4.87868C4.44129 4.31607 5.20435 4 6 4H13C13.7956 4 14.5587 4.31607 15.1213 4.87868C15.6839 5.44129 16 6.20435 16 7V8" stroke-width="2" stroke-linecap="round" stroke-linejoin="round"/>
</symbol><symbol id="icon-logout" viewBox="0 0 20 17">
<path d="M20 8.5L11.125 0V6H5.125V11H11.125V17L20 8.5Z"/>
<path d="M2.10598 13.952V3.048C2.12398 2.672 2.27698 1.991 3.11598 1.991H8.14297V0H3.11598C0.937975 0 0.111975 1.81 0.0869751 3.027V13.973C0.111975 15.189 0.937975 17 3.11598 17H8.14297V15.01H3.11598C2.27698 15.01 2.12398 14.327 2.10598 13.952Z"/>
</symbol><symbol id="icon-magnifier" viewBox="0 0 17 17">
<path fill-rule="evenodd" clip-rule="evenodd" d="M13.458 12.044L17 15.586L15.586 17L12.044 13.458C10.782 14.421 9.21 15 7.5 15C3.35786 15 0 11.6421 0 7.5C0 3.35786 3.35786 0 7.5 0C11.6421 0 15 3.35786 15 7.5C15.0001 9.14309 14.4581 10.7403 13.458 12.044ZM7.5 2C4.467 2 2 4.467 2 7.5C2.00331 10.5362 4.4638 12.9967 7.5 13C10.532 13 13 10.532 13 7.5C13 4.467 10.532 2 7.5 2Z"/>
</symbol><symbol id="icon-mark" viewBox="0 0 66 66">
<path d="M33 66C51.2254 66 66 51.2254 66 33C66 14.7746 51.2254 0 33 0C14.7746 0 0 14.7746 0 33C0 51.2254 14.7746 66 33 66Z" fill="#63A63E"/>
<path d="M49.641 21.066C49.2498 20.6773 48.6181 20.6773 48.227 21.066L29.788 39.504C29.3968 39.8927 28.7651 39.8927 28.374 39.504L20.234 31.365C19.8428 30.9763 19.2111 30.9763 18.82 31.365L15.285 34.9C14.8962 35.2912 14.8962 35.9228 15.285 36.314L28.374 49.404C28.7651 49.7927 29.3968 49.7927 29.788 49.404L33.324 45.868L34.738 44.454L53.176 26.016C53.5647 25.6248 53.5647 24.9932 53.176 24.602L49.641 21.066Z" fill="white"/>
</symbol><symbol id="icon-phone" viewBox="0 0 24 24">
<path d="M3.58579 3.58579C3.21071 3.96086 3 4.46957 3 5V6C3 14.284 9.716 21 18 21H19C19.5304 21 20.0391 20.7893 20.4142 20.4142C20.7893 20.0391 21 19.5304 21 19V15.721C21.0001 15.511 20.934 15.3064 20.8112 15.136C20.6885 14.9657 20.5152 14.8383 20.316 14.772L15.823 13.274C15.5947 13.1981 15.3466 13.2071 15.1244 13.2993C14.9021 13.3915 14.7205 13.5607 14.613 13.776L13.483 16.033C11.0345 14.9267 9.07332 12.9655 7.967 10.517L10.224 9.387C10.4393 9.27945 10.6085 9.0979 10.7007 8.87564C10.7929 8.65339 10.8019 8.40534 10.726 8.177L9.228 3.684C9.16171 3.48496 9.03449 3.3118 8.86436 3.18905C8.69422 3.0663 8.48979 3.00016 8.28 3H5C4.46957 3 3.96086 3.21071 3.58579 3.58579Z" stroke-width="2" stroke-linecap="round" stroke-linejoin="round"/>
</symbol><symbol id="icon-search" viewBox="0 0 24 24">
<path d="M21 21L15 15M17 10C17 10.9193 16.8189 11.8295 16.4672 12.6788C16.1154 13.5281 15.5998 14.2997 14.9497 14.9497C14.2997 15.5998 13.5281 16.1154 12.6788 16.4672C11.8295 16.8189 10.9193 17 10 17C9.08075 17 8.1705 16.8189 7.32122 16.4672C6.47194 16.1154 5.70026 15.5998 5.05025 14.9497C4.40024 14.2997 3.88463 13.5281 3.53284 12.6788C3.18106 11.8295 3 10.9193 3 10C3 8.14348 3.7375 6.36301 5.05025 5.05025C6.36301 3.7375 8.14348 3 10 3C11.8565 3 13.637 3.7375 14.9497 5.05025C16.2625 6.36301 17 8.14348 17 10Z" stroke-width="2" stroke-linecap="round" stroke-linejoin="round"/>
</symbol><symbol id="icon-shopping-cart" viewBox="0 0 24 24">
<path d="M3 3H5L5.4 5M5.4 5H21L17 13H7M5.4 5L7 13M7 13L4.707 15.293C4.077 15.923 4.523 17 5.414 17H17M17 17C16.4696 17 15.9609 17.2107 15.5858 17.5858C15.2107 17.9609 15 18.4696 15 19C15 19.5304 15.2107 20.0391 15.5858 20.4142C15.9609 20.7893 16.4696 21 17 21C17.5304 21 18.0391 20.7893 18.4142 20.4142C18.7893 20.0391 19 19.5304 19 19C19 18.4696 18.7893 17.9609 18.4142 17.5858C18.0391 17.2107 17.5304 17 17 17ZM9 19C9 19.5304 8.78929 20.0391 8.41421 20.4142C8.03914 20.7893 7.53043 21 7 21C6.46957 21 5.96086 20.7893 5.58579 20.4142C5.21071 20.0391 5 19.5304 5 19C5 18.4696 5.21071 17.9609 5.58579 17.5858C5.96086 17.2107 6.46957 17 7 17C7.53043 17 8.03914 17.2107 8.41421 17.5858C8.78929 17.9609 9 18.4696 9 19Z" stroke-width="2" stroke-linecap="round" stroke-linejoin="round"/>
</symbol><symbol id="icon-user" viewBox="0 0 20 18">
<path d="M17.881 14.166C15.737 13.431 13.625 12.5 12.674 11.776C12.017 11.275 11.904 10.158 12.157 9.361C13.275 8.458 14.021 6.884 14.021 5.083C14.021 2.276 12.221 0 10 0C7.77902 0 5.97901 2.276 5.97901 5.083C5.97901 6.884 6.72501 8.457 7.84201 9.36C8.09501 10.158 7.98302 11.275 7.32502 11.776C6.37502 12.5 4.26201 13.43 2.11801 14.166C-0.0259852 14.902 1.48343e-05 18 1.48343e-05 18H20C20 18 20.025 14.901 17.881 14.166Z"/>
</symbol><symbol id="icon-vk" viewBox="0 0 44 44">
<path fill-rule="evenodd" clip-rule="evenodd" d="M22.1628 1.48389C33.6534 1.48389 42.9683 10.5873 42.9683 21.8169C42.9683 33.0461 33.6534 42.1494 22.1628 42.1494C10.6722 42.1494 1.35718 33.0461 1.35718 21.8169C1.35718 10.5873 10.6722 1.48389 22.1628 1.48389Z"/>
<path d="M24.5403 25.7281C25.4609 25.4384 26.6395 27.6406 27.8943 28.4834C28.836 29.1219 29.5573 28.9841 29.5573 28.9841L32.9017 28.9372C32.9017 28.9372 34.6495 28.8322 33.8232 27.4803C33.7549 27.3678 33.3389 26.4781 31.334 24.6472C29.2376 22.7319 29.5217 23.0422 32.0456 19.7309C33.5835 17.7125 34.1988 16.4797 34.0062 15.9547C33.8213 15.4494 32.6918 15.5806 32.6918 15.5806L28.9237 15.6059C28.5568 15.6069 28.2458 15.7175 28.1042 16.0887C28.1013 16.0925 27.5062 17.6506 26.7127 18.9753C25.0362 21.7775 24.3669 21.9266 24.0896 21.7512C23.4531 21.3453 23.6139 20.1228 23.6139 19.2537C23.6139 16.5378 24.0299 15.4053 22.7992 15.1128C22.388 15.0153 22.0876 14.9516 21.0389 14.9422C19.6985 14.9225 18.5603 14.9422 17.9151 15.2506C17.4866 15.4597 17.1582 15.9181 17.3575 15.9444C17.6079 15.9772 18.1693 16.0944 18.4697 16.4937C18.8559 17.0112 18.8443 18.1709 18.8443 18.1709C18.8443 18.1709 19.0649 21.3687 18.3243 21.7653C17.8159 22.0372 17.1206 21.4822 15.6252 18.9378C14.8615 17.6366 14.2847 16.1984 14.2847 16.1984C14.2847 16.1984 14.173 15.9312 13.9708 15.785C13.73 15.6116 13.393 15.5562 13.393 15.5562L9.81656 15.5787C9.81656 15.5787 9.27923 15.5937 9.08182 15.8244C8.90656 16.0287 9.06738 16.4506 9.06738 16.4506C9.06738 16.4506 11.8686 22.9016 15.0406 26.1509C17.9488 29.1341 21.2537 28.9362 21.2537 28.9362H22.7511C22.7511 28.9362 23.2027 28.8856 23.4338 28.6437C23.6495 28.4187 23.6399 27.9959 23.6399 27.9959C23.6399 27.9959 23.61 26.0187 24.5403 25.7281Z" fill="currentColor"/>
</symbol><symbol id="radio-off" viewBox="0 0 25 25">
<path fill-rule="evenodd" clip-rule="evenodd" d="M0.162354 12.5C0.162354 5.597 5.75935 0 12.6624 0C19.5654 0 25.1624 5.597 25.1624 12.5C25.1624 19.403 19.5654 25 12.6624 25C5.75935 25 0.162354 19.403 0.162354 12.5ZM21.1624 12.5C21.1624 7.813 17.3494 4 12.6624 4C7.97535 4 4.16235 7.813 4.16235 12.5C4.16235 17.187 7.97535 21 12.6624 21C17.3494 21 21.1624 17.187 21.1624 12.5Z"/>
</symbol><symbol id="radio-on" viewBox="0 0 25 25">
<path fill-rule="evenodd" clip-rule="evenodd" d="M0.162415 12.5C0.162415 5.597 5.75941 0 12.6624 0C19.5654 0 25.1624 5.597 25.1624 12.5C25.1624 19.403 19.5654 25 12.6624 25C5.75941 25 0.162415 19.403 0.162415 12.5ZM21.1624 12.5C21.1624 7.813 17.3494 4 12.6624 4C7.97541 4 4.16241 7.813 4.16241 12.5C4.16241 17.187 7.97541 21 12.6624 21C17.3494 21 21.1624 17.187 21.1624 12.5Z"/>
<path d="M12.6624 17C15.1477 17 17.1624 14.9853 17.1624 12.5C17.1624 10.0147 15.1477 8 12.6624 8C10.1771 8 8.16241 10.0147 8.16241 12.5C8.16241 14.9853 10.1771 17 12.6624 17Z"/>
</symbol></svg>